<?xml version="1.0" encoding="UTF-8"?>
<!DOCTYPE svg PUBLIC "-//W3C//DTD SVG 1.1//EN" "http://www.w3.org/Graphics/SVG/1.1/DTD/svg11.dtd">
<svg xmlns="http://www.w3.org/2000/svg" version="1.1" width="2181px" height="1431px" style="shape-rendering:geometricPrecision; text-rendering:geometricPrecision; image-rendering:optimizeQuality; fill-rule:evenodd; clip-rule:evenodd" xmlns:xlink="http://www.w3.org/1999/xlink">
<g><path style="opacity:0.999" fill="#b8e2f7" d="M 1527.5,160.5 C 1538.47,161.243 1549.47,161.91 1560.5,162.5C 1561.5,225.762 1561.83,289.095 1561.5,352.5C 1554.13,352.384 1546.79,352.884 1539.5,354C 1531.89,357.139 1524.55,360.806 1517.5,365C 1526.83,366.545 1536.17,367.045 1545.5,366.5C 1551.02,367.232 1556.35,368.565 1561.5,370.5C 1561.5,499.833 1561.5,629.167 1561.5,758.5C 1535.38,731.499 1510.21,703.832 1486,675.5C 1483,672.833 1480,670.167 1477,667.5C 1476.21,666.255 1475.71,664.922 1475.5,663.5C 1475.33,597.166 1475.5,530.832 1476,464.5C 1477.7,465.406 1479.53,465.739 1481.5,465.5C 1489.65,468.319 1496.48,472.986 1502,479.5C 1514.45,462.741 1530.95,456.075 1551.5,459.5C 1546.17,456.653 1541.01,453.653 1536,450.5C 1531.51,451.099 1527.01,451.599 1522.5,452C 1515.11,454.779 1507.95,457.945 1501,461.5C 1494.42,458.474 1487.59,456.14 1480.5,454.5C 1479.08,453.549 1477.41,453.216 1475.5,453.5C 1475.5,356.5 1475.5,259.5 1475.5,162.5C 1493,162.183 1510.34,161.516 1527.5,160.5 Z"/></g>
<g><path style="opacity:0.999" fill="#b2e0f6" d="M 1527.5,160.5 C 1510.34,161.516 1493,162.183 1475.5,162.5C 1475.5,259.5 1475.5,356.5 1475.5,453.5C 1477.41,453.216 1479.08,453.549 1480.5,454.5C 1469.9,453.649 1460.23,456.149 1451.5,462C 1457.78,461.465 1464.11,461.465 1470.5,462C 1474.49,462.498 1478.16,463.665 1481.5,465.5C 1479.53,465.739 1477.7,465.406 1476,464.5C 1475.5,530.832 1475.33,597.166 1475.5,663.5C 1470.5,660.662 1466.66,656.662 1464,651.5C 1444.62,631.288 1425.79,610.622 1407.5,589.5C 1411.47,542.974 1402.47,499.307 1380.5,458.5C 1378.83,455.162 1377.17,451.828 1375.5,448.5C 1376.5,448.414 1377.33,448.748 1378,449.5C 1378.17,355.43 1378.67,261.43 1379.5,167.5C 1396.07,164.872 1412.73,163.038 1429.5,162C 1462.15,160.716 1494.82,160.216 1527.5,160.5 Z"/></g>
<g><path style="opacity:0.997" fill="#bee4f7" d="M 1560.5,162.5 C 1587.57,163.014 1614.24,166.347 1640.5,172.5C 1639.84,231.382 1640.51,290.049 1642.5,348.5C 1632.41,349.344 1622.41,350.844 1612.5,353C 1606.23,357.62 1599.73,361.787 1593,365.5C 1587.4,363.968 1582.57,361.134 1578.5,357C 1572.67,355.628 1567.01,354.128 1561.5,352.5C 1561.83,289.095 1561.5,225.762 1560.5,162.5 Z"/></g>
<g><path style="opacity:0.998" fill="#abddf6" d="M 1379.5,167.5 C 1378.67,261.43 1378.17,355.43 1378,449.5C 1377.33,448.748 1376.5,448.414 1375.5,448.5C 1368.32,436.649 1359.99,425.649 1350.5,415.5C 1348.15,413.787 1347.15,411.453 1347.5,408.5C 1346.45,408.649 1345.45,408.483 1344.5,408C 1335.53,398.848 1325.86,390.682 1315.5,383.5C 1312.21,380.882 1309.21,377.882 1306.5,374.5C 1300.48,371.491 1294.48,368.491 1288.5,365.5C 1287.83,364.833 1287.17,364.167 1286.5,363.5C 1287.5,303.002 1287.83,242.336 1287.5,181.5C 1318.08,176.08 1348.74,171.413 1379.5,167.5 Z"/></g>
<g><path style="opacity:0.999" fill="#c4e6f8" d="M 1640.5,172.5 C 1671.84,177.001 1702.5,184.334 1732.5,194.5C 1732.17,411.57 1732.5,628.57 1733.5,845.5C 1713.68,837.928 1694.01,829.761 1674.5,821C 1662.13,815.011 1649.8,809.178 1637.5,803.5C 1638.5,803.586 1639.33,803.252 1640,802.5C 1639.83,694.162 1640.67,586.162 1642.5,478.5C 1646.73,481.114 1651.07,483.448 1655.5,485.5C 1660.23,484.124 1663.9,481.291 1666.5,477C 1675.61,471.9 1685.28,470.234 1695.5,472C 1690.58,468.919 1685.41,466.419 1680,464.5C 1671.01,465.439 1662.85,468.439 1655.5,473.5C 1652.35,472.091 1649.35,470.425 1646.5,468.5C 1645.31,466.025 1643.31,465.025 1640.5,465.5C 1640.5,431.5 1640.5,397.5 1640.5,363.5C 1645.69,363.987 1650.69,363.987 1655.5,363.5C 1659.85,363.666 1664.18,363.499 1668.5,363C 1662.51,357.504 1655.51,353.837 1647.5,352C 1645.42,351.303 1643.75,350.136 1642.5,348.5C 1640.51,290.049 1639.84,231.382 1640.5,172.5 Z"/></g>
<g><path style="opacity:0.997" fill="#a5dbf5" d="M 1287.5,181.5 C 1287.83,242.336 1287.5,303.002 1286.5,363.5C 1281.06,360.608 1275.72,357.441 1270.5,354C 1264.15,351.819 1257.81,349.652 1251.5,347.5C 1240.4,342.696 1228.73,339.696 1216.5,338.5C 1209,336.555 1201.34,335.555 1193.5,335.5C 1193.5,335.167 1193.5,334.833 1193.5,334.5C 1195.5,288.845 1196.16,242.845 1195.5,196.5C 1225.87,190.498 1256.54,185.498 1287.5,181.5 Z"/></g>
<g><path style="opacity:0.999" fill="#cbe8f8" d="M 1732.5,194.5 C 1745.96,199.067 1759.29,203.9 1772.5,209C 1785.88,215.353 1798.88,222.186 1811.5,229.5C 1811.5,417.833 1811.5,606.167 1811.5,794.5C 1809.99,798.176 1807.32,800.676 1803.5,802C 1785.14,817.696 1766.81,833.363 1748.5,849C 1742.89,850.886 1737.89,849.719 1733.5,845.5C 1732.5,628.57 1732.17,411.57 1732.5,194.5 Z"/></g>
<g><path style="opacity:0.997" fill="#9fd9f5" d="M 1195.5,196.5 C 1196.16,242.845 1195.5,288.845 1193.5,334.5C 1175.04,333.776 1156.71,334.776 1138.5,337.5C 1124.3,338.65 1110.63,341.983 1097.5,347.5C 1097.5,303.5 1097.5,259.5 1097.5,215.5C 1109.82,212.668 1122.15,209.835 1134.5,207C 1154.97,204.143 1175.31,200.643 1195.5,196.5 Z"/></g>
<g><path style="opacity:0.997" fill="#98d7f5" d="M 1097.5,215.5 C 1097.5,259.5 1097.5,303.5 1097.5,347.5C 1095.85,347.66 1094.51,348.326 1093.5,349.5C 1081.8,352.014 1071.47,357.181 1062.5,365C 1060.21,365.822 1057.88,366.489 1055.5,367C 1054.24,369.276 1052.57,371.109 1050.5,372.5C 1021.98,389.015 998.983,411.348 981.5,439.5C 979.833,441.5 978.167,443.5 976.5,445.5C 976.667,378.499 976.5,311.499 976,244.5C 975.617,243.944 975.117,243.611 974.5,243.5C 991.857,239.659 1009.19,235.159 1026.5,230C 1050.08,224.688 1073.74,219.855 1097.5,215.5 Z"/></g>
<g><path style="opacity:0.998" fill="#d1eaf8" d="M 1811.5,229.5 C 1817.61,232.441 1823.61,235.608 1829.5,239C 1841.17,247.333 1852.83,255.667 1864.5,264C 1865.79,266.292 1867.46,268.292 1869.5,270C 1874.76,273.582 1879.76,277.582 1884.5,282C 1886.14,283.129 1887.14,284.629 1887.5,286.5C 1885.5,433.83 1884.83,581.496 1885.5,729.5C 1886.5,729.5 1887.5,729.5 1888.5,729.5C 1866.28,748.973 1843.95,768.473 1821.5,788C 1818.01,789.996 1814.68,792.163 1811.5,794.5C 1811.5,606.167 1811.5,417.833 1811.5,229.5 Z"/></g>
<g><path style="opacity:0.998" fill="#91d5f4" d="M 974.5,243.5 C 975.117,243.611 975.617,243.944 976,244.5C 976.5,311.499 976.667,378.499 976.5,445.5C 937.274,513.734 931.774,584.734 960,658.5C 965.44,669.046 970.607,679.713 975.5,690.5C 964.784,702.72 953.451,714.554 941.5,726C 908.381,757.618 875.381,789.451 842.5,821.5C 841.761,821.631 841.094,821.464 840.5,821C 841.499,641.236 841.833,461.403 841.5,281.5C 862.987,274.246 884.654,267.412 906.5,261C 929.01,254.539 951.676,248.706 974.5,243.5 Z"/></g>
<g><path style="opacity:0.999" fill="#8cd3f4" d="M 841.5,281.5 C 841.833,461.403 841.499,641.236 840.5,821C 841.094,821.464 841.761,821.631 842.5,821.5C 830.978,832.188 819.978,843.355 809.5,855C 804.85,856.909 800.184,856.909 795.5,855C 784.667,848.918 773.334,843.918 761.5,840C 751.047,835.041 740.714,829.874 730.5,824.5C 731.165,750.57 731.498,676.57 731.5,602.5C 731.5,528.497 730.833,454.83 729.5,381.5C 759.989,369.353 782.989,348.686 798.5,319.5C 800.176,316.31 801.176,312.81 801.5,309C 800.862,304.588 799.529,300.422 797.5,296.5C 812.128,291.513 826.794,286.513 841.5,281.5 Z"/></g>
<g><path style="opacity:0.995" fill="#f17427" d="M 757.5,287.5 C 762.167,287.5 766.833,287.5 771.5,287.5C 756.663,295.469 741.663,303.302 726.5,311C 724.789,312.133 724.289,313.633 725,315.5C 730.047,321.488 736.214,322.988 743.5,320C 759.354,312.24 775.021,304.24 790.5,296C 791.381,295.292 792.047,294.458 792.5,293.5C 794.434,294.11 796.101,295.11 797.5,296.5C 799.529,300.422 800.862,304.588 801.5,309C 801.176,312.81 800.176,316.31 798.5,319.5C 739.975,347.514 681.642,376.014 623.5,405C 621.859,406.129 620.859,407.629 620.5,409.5C 613.708,420.384 608.708,431.717 605.5,443.5C 584.86,490.453 563.36,537.12 541,583.5C 535.453,592.047 528.287,598.88 519.5,604C 509.124,608.737 498.791,613.57 488.5,618.5C 488.167,617.667 487.833,616.833 487.5,616C 499.165,573.665 511.332,531.498 524,489.5C 524.64,487.735 524.473,486.068 523.5,484.5C 525.451,483.718 526.951,482.384 528,480.5C 530.133,473.769 532.466,467.102 535,460.5C 535.953,457.568 536.453,454.568 536.5,451.5C 492.338,472.748 448.338,494.248 404.5,516C 400.931,517.942 397.598,520.108 394.5,522.5C 390.368,520.956 386.368,519.123 382.5,517C 380.115,516.444 377.782,516.61 375.5,517.5C 374.833,516.833 374.167,516.167 373.5,515.5C 374.117,515.389 374.617,515.056 375,514.5C 375.021,495.81 374.521,477.143 373.5,458.5C 372.178,458.33 371.011,458.663 370,459.5C 365.175,471.161 360.509,482.828 356,494.5C 355.828,497.826 355.995,501.159 356.5,504.5C 353.787,510.052 349.787,514.552 344.5,518C 338.396,521.144 332.063,523.477 325.5,525C 326.179,511.775 329.179,498.941 334.5,486.5C 333.902,485.205 333.402,483.872 333,482.5C 322.314,472.98 311.481,463.646 300.5,454.5C 299.614,453.675 299.281,452.675 299.5,451.5C 309.573,447.029 319.573,442.363 329.5,437.5C 341.457,435.806 353.123,436.806 364.5,440.5C 366.114,440.197 367.448,439.53 368.5,438.5C 369.683,439.504 371.016,440.338 372.5,441C 383.831,443.283 394.998,446.116 406,449.5C 440.068,432.049 474.234,415.049 508.5,398.5C 512.135,398.943 515.802,398.443 519.5,397C 543.167,385.167 566.833,373.333 590.5,361.5C 591.562,360.575 591.562,359.575 590.5,358.5C 633.98,335.827 677.98,313.993 722.5,293C 731.1,291.046 739.766,289.546 748.5,288.5C 750.288,288.971 752.122,289.304 754,289.5C 755.681,289.392 756.848,288.725 757.5,287.5 Z"/></g>
<g><path style="opacity:0.992" fill="#facf05" d="M 771.5,287.5 C 779.19,287.502 786.19,289.502 792.5,293.5C 792.047,294.458 791.381,295.292 790.5,296C 775.021,304.24 759.354,312.24 743.5,320C 736.214,322.988 730.047,321.488 725,315.5C 724.289,313.633 724.789,312.133 726.5,311C 741.663,303.302 756.663,295.469 771.5,287.5 Z"/></g>
<g><path style="opacity:0.973" fill="#fdbd99" d="M 757.5,287.5 C 756.848,288.725 755.681,289.392 754,289.5C 752.122,289.304 750.288,288.971 748.5,288.5C 751.285,286.622 754.285,286.289 757.5,287.5 Z"/></g>
<g><path style="opacity:0.998" fill="#d7ecf9" d="M 1887.5,286.5 C 1917.46,313.708 1941.12,345.708 1958.5,382.5C 1958.66,520.382 1958.49,658.382 1958,796.5C 1957.67,796.167 1957.33,795.833 1957,795.5C 1957.11,796.769 1956.94,797.769 1956.5,798.5C 1935.85,775.007 1914.52,751.84 1892.5,729C 1891.18,728.805 1889.85,728.972 1888.5,729.5C 1887.5,729.5 1886.5,729.5 1885.5,729.5C 1884.83,581.496 1885.5,433.83 1887.5,286.5 Z"/></g>
<g><path style="opacity:1" fill="#ec4024" d="M 798.5,319.5 C 782.989,348.686 759.989,369.353 729.5,381.5C 693.936,398.282 658.602,415.615 623.5,433.5C 622.691,425.616 621.691,417.616 620.5,409.5C 620.859,407.629 621.859,406.129 623.5,405C 681.642,376.014 739.975,347.514 798.5,319.5 Z"/></g>
<g><path style="opacity:0.995" fill="#ec3e22" d="M 590.5,358.5 C 591.562,359.575 591.562,360.575 590.5,361.5C 566.833,373.333 543.167,385.167 519.5,397C 515.802,398.443 512.135,398.943 508.5,398.5C 484.603,382.538 460.27,367.038 435.5,352C 433.579,350.759 433.246,349.259 434.5,347.5C 439.16,345.505 443.494,343.005 447.5,340C 459.593,334.478 472.259,332.478 485.5,334C 491.484,335.073 497.484,336.073 503.5,337C 532.476,344.327 561.476,351.494 590.5,358.5 Z"/></g>
<g><path style="opacity:1" fill="#f7cd09" d="M 674.5,335.5 C 682.908,335.75 686.408,340.083 685,348.5C 680.181,352.919 676.181,352.252 673,346.5C 670.604,342.338 671.104,338.671 674.5,335.5 Z"/></g>
<g><path style="opacity:0.999" fill="#f8b80e" d="M 1193.5,334.5 C 1193.5,334.833 1193.5,335.167 1193.5,335.5C 1187.17,335.5 1180.83,335.5 1174.5,335.5C 1174.33,449.834 1174.5,564.167 1175,678.5C 1175.38,679.056 1175.88,679.389 1176.5,679.5C 1168.14,686.874 1159.47,694.04 1150.5,701C 1145.71,703.483 1141.71,702.65 1138.5,698.5C 1138.5,578.167 1138.5,457.833 1138.5,337.5C 1156.71,334.776 1175.04,333.776 1193.5,334.5 Z"/></g>
<g><path style="opacity:0.998" fill="#f7b210" d="M 1193.5,335.5 C 1201.34,335.555 1209,336.555 1216.5,338.5C 1216.17,441.207 1216.5,543.874 1217.5,646.5C 1203.98,657.751 1190.31,668.751 1176.5,679.5C 1175.88,679.389 1175.38,679.056 1175,678.5C 1174.5,564.167 1174.33,449.834 1174.5,335.5C 1180.83,335.5 1187.17,335.5 1193.5,335.5 Z"/></g>
<g><path style="opacity:0.999" fill="#f7ab13" d="M 1216.5,338.5 C 1228.73,339.696 1240.4,342.696 1251.5,347.5C 1250.17,437.833 1250.17,528.167 1251.5,618.5C 1240.48,628.181 1229.15,637.514 1217.5,646.5C 1216.5,543.874 1216.17,441.207 1216.5,338.5 Z"/></g>
<g><path style="opacity:0.999" fill="#f8be0c" d="M 1138.5,337.5 C 1138.5,457.833 1138.5,578.167 1138.5,698.5C 1124.12,688.438 1109.79,678.438 1095.5,668.5C 1095.84,615.245 1095.84,561.745 1095.5,508C 1095.5,454.829 1094.83,401.996 1093.5,349.5C 1094.51,348.326 1095.85,347.66 1097.5,347.5C 1110.63,341.983 1124.3,338.65 1138.5,337.5 Z"/></g>
<g><path style="opacity:1" fill="#f8cd08" d="M 656.5,344.5 C 665.448,345.025 668.448,349.692 665.5,358.5C 659.62,361.983 655.787,360.317 654,353.5C 652.927,349.9 653.76,346.9 656.5,344.5 Z"/></g>
<g><path style="opacity:0.998" fill="#f6a515" d="M 1251.5,347.5 C 1257.81,349.652 1264.15,351.819 1270.5,354C 1275.72,357.441 1281.06,360.608 1286.5,363.5C 1287.17,364.167 1287.83,364.833 1288.5,365.5C 1287.07,365.579 1285.74,365.246 1284.5,364.5C 1283.5,440.83 1283.17,517.164 1283.5,593.5C 1273.23,602.305 1262.57,610.638 1251.5,618.5C 1250.17,528.167 1250.17,437.833 1251.5,347.5 Z"/></g>
<g><path style="opacity:0.999" fill="#f9c40a" d="M 1093.5,349.5 C 1094.83,401.996 1095.5,454.829 1095.5,508C 1095.84,561.745 1095.84,615.245 1095.5,668.5C 1085.07,661.108 1074.4,653.941 1063.5,647C 1059.1,643.481 1054.76,639.981 1050.5,636.5C 1049.17,548.458 1049.17,460.458 1050.5,372.5C 1052.57,371.109 1054.24,369.276 1055.5,367C 1057.88,366.489 1060.21,365.822 1062.5,365C 1071.47,357.181 1081.8,352.014 1093.5,349.5 Z"/></g>
<g><path style="opacity:1" fill="#044052" d="M 1642.5,348.5 C 1643.75,350.136 1645.42,351.303 1647.5,352C 1655.51,353.837 1662.51,357.504 1668.5,363C 1664.18,363.499 1659.85,363.666 1655.5,363.5C 1630.19,361.424 1609.85,370.591 1594.5,391C 1593.17,391.667 1591.83,391.667 1590.5,391C 1589.15,387.805 1586.82,385.972 1583.5,385.5C 1583.65,384.448 1583.48,383.448 1583,382.5C 1576.8,376.814 1569.63,372.814 1561.5,370.5C 1556.35,368.565 1551.02,367.232 1545.5,366.5C 1536.17,367.045 1526.83,366.545 1517.5,365C 1524.55,360.806 1531.89,357.139 1539.5,354C 1546.79,352.884 1554.13,352.384 1561.5,352.5C 1567.01,354.128 1572.67,355.628 1578.5,357C 1582.57,361.134 1587.4,363.968 1593,365.5C 1599.73,361.787 1606.23,357.62 1612.5,353C 1622.41,350.844 1632.41,349.344 1642.5,348.5 Z"/></g>
<g><path style="opacity:1" fill="#f8cc08" d="M 638.5,353.5 C 644.427,353.919 648.093,357.086 649.5,363C 649.333,367.167 647.167,369.333 643,369.5C 638.206,367.778 635.706,364.278 635.5,359C 635.12,356.297 636.12,354.463 638.5,353.5 Z"/></g>
<g><path style="opacity:1" fill="#f8cc09" d="M 620.5,362.5 C 627.74,363.239 631.24,367.239 631,374.5C 628.859,377.491 626.025,378.658 622.5,378C 618.585,375.01 616.752,371.177 617,366.5C 618.032,364.973 619.199,363.64 620.5,362.5 Z"/></g>
<g><path style="opacity:0.998" fill="#f59f17" d="M 1288.5,365.5 C 1294.48,368.491 1300.48,371.491 1306.5,374.5C 1309.21,377.882 1312.21,380.882 1315.5,383.5C 1314.17,443.902 1314.17,504.402 1315.5,565C 1314.83,565.333 1314.17,565.667 1313.5,566C 1314.42,566.278 1315.08,566.778 1315.5,567.5C 1305.1,576.573 1294.43,585.239 1283.5,593.5C 1283.17,517.164 1283.5,440.83 1284.5,364.5C 1285.74,365.246 1287.07,365.579 1288.5,365.5 Z"/></g>
<g><path style="opacity:0.999" fill="#bee4f7" d="M 1655.5,363.5 C 1650.69,363.987 1645.69,363.987 1640.5,363.5C 1640.5,397.5 1640.5,431.5 1640.5,465.5C 1643.31,465.025 1645.31,466.025 1646.5,468.5C 1639.31,466.537 1631.97,466.037 1624.5,467C 1622.98,468.685 1621.32,470.185 1619.5,471.5C 1620.5,472.333 1621.5,473.167 1622.5,474C 1626.83,474.333 1631.17,474.667 1635.5,475C 1638.17,475.67 1640.51,476.837 1642.5,478.5C 1640.67,586.162 1639.83,694.162 1640,802.5C 1639.33,803.252 1638.5,803.586 1637.5,803.5C 1617.4,795.298 1597.4,786.798 1577.5,778C 1572.33,771.335 1567,764.835 1561.5,758.5C 1561.5,629.167 1561.5,499.833 1561.5,370.5C 1569.63,372.814 1576.8,376.814 1583,382.5C 1583.48,383.448 1583.65,384.448 1583.5,385.5C 1586.82,385.972 1589.15,387.805 1590.5,391C 1591.83,391.667 1593.17,391.667 1594.5,391C 1609.85,370.591 1630.19,361.424 1655.5,363.5 Z"/></g>
<g><path style="opacity:1" fill="#f7cc08" d="M 601.5,371.5 C 610.202,371.555 613.702,375.888 612,384.5C 607.891,388.764 604.225,388.431 601,383.5C 597.553,379.214 597.719,375.214 601.5,371.5 Z"/></g>
<g><path style="opacity:0.999" fill="#facb08" d="M 1050.5,372.5 C 1049.17,460.458 1049.17,548.458 1050.5,636.5C 1046.63,634.807 1043.13,632.474 1040,629.5C 1038.58,630.46 1037.08,631.293 1035.5,632C 1019.97,647.702 1004.3,663.202 988.5,678.5C 986.264,679.389 984.264,680.722 982.5,682.5C 981.5,601.503 981.167,520.503 981.5,439.5C 998.983,411.348 1021.98,389.015 1050.5,372.5 Z"/></g>
<g><path style="opacity:1" fill="#f8cb09" d="M 584.5,380.5 C 592.394,380.609 595.894,384.609 595,392.5C 590.437,398.151 586.437,397.817 583,391.5C 580.654,387.337 581.154,383.671 584.5,380.5 Z"/></g>
<g><path style="opacity:0.999" fill="#86d1f3" d="M 729.5,381.5 C 730.833,454.83 731.5,528.497 731.5,602.5C 731.498,676.57 731.165,750.57 730.5,824.5C 658.176,790.377 589.843,749.877 525.5,703C 503.206,680.379 484.372,655.213 469,627.5C 453.726,594.866 449.892,560.866 457.5,525.5C 458.117,525.389 458.617,525.056 459,524.5C 459.278,521.279 460.111,518.279 461.5,515.5C 465.258,512.443 469.258,509.61 473.5,507C 489.859,498.65 506.526,491.15 523.5,484.5C 524.473,486.068 524.64,487.735 524,489.5C 511.332,531.498 499.165,573.665 487.5,616C 487.833,616.833 488.167,617.667 488.5,618.5C 498.791,613.57 509.124,608.737 519.5,604C 528.287,598.88 535.453,592.047 541,583.5C 563.36,537.12 584.86,490.453 605.5,443.5C 608.333,441.522 611.333,439.689 614.5,438C 618.353,437.901 621.353,436.401 623.5,433.5C 658.602,415.615 693.936,398.282 729.5,381.5 Z"/></g>
<g><path style="opacity:0.993" fill="#dceef9" d="M 1958.5,382.5 C 1972.79,413.202 1983.62,445.202 1991,478.5C 1998.48,517.702 2004.31,557.035 2008.5,596.5C 2007.12,603.882 2007.46,611.216 2009.5,618.5C 2009.49,643.487 2009.49,668.487 2009.5,693.5C 2007.37,710.411 2006.21,727.411 2006,744.5C 2001.28,774.496 1996.45,804.496 1991.5,834.5C 1989.1,834.607 1987.26,833.607 1986,831.5C 1976.3,820.306 1966.47,809.306 1956.5,798.5C 1956.94,797.769 1957.11,796.769 1957,795.5C 1957.33,795.833 1957.67,796.167 1958,796.5C 1958.49,658.382 1958.66,520.382 1958.5,382.5 Z"/></g>
<g><path style="opacity:0.998" fill="#f59919" d="M 1315.5,383.5 C 1325.86,390.682 1335.53,398.848 1344.5,408C 1345.45,408.483 1346.45,408.649 1347.5,408.5C 1347.15,411.453 1348.15,413.787 1350.5,415.5C 1349.34,455.998 1349.17,496.665 1350,537.5C 1350.38,538.056 1350.88,538.389 1351.5,538.5C 1339.86,548.455 1327.86,558.122 1315.5,567.5C 1315.08,566.778 1314.42,566.278 1313.5,566C 1314.17,565.667 1314.83,565.333 1315.5,565C 1314.17,504.402 1314.17,443.902 1315.5,383.5 Z"/></g>
<g><path style="opacity:1" fill="#f8cc09" d="M 566.5,389.5 C 574.394,389.609 577.894,393.609 577,401.5C 573.74,406.285 570.073,406.619 566,402.5C 564.78,399.789 563.947,396.956 563.5,394C 563.557,391.791 564.557,390.291 566.5,389.5 Z"/></g>
<g><path style="opacity:1" fill="#f8cb09" d="M 549.5,397.5 C 556.187,397.861 559.52,401.528 559.5,408.5C 559.192,412.009 557.192,413.676 553.5,413.5C 548.492,412.198 545.826,408.865 545.5,403.5C 545.67,400.674 547.003,398.674 549.5,397.5 Z"/></g>
<g><path style="opacity:1" fill="#f7cd08" d="M 530.5,406.5 C 538.22,407.389 541.72,411.723 541,419.5C 537.144,424.313 533.477,424.313 530,419.5C 526.672,414.856 526.839,410.523 530.5,406.5 Z"/></g>
<g><path style="opacity:1" fill="#f9ca0d" d="M 620.5,409.5 C 621.691,417.616 622.691,425.616 623.5,433.5C 621.353,436.401 618.353,437.901 614.5,438C 611.333,439.689 608.333,441.522 605.5,443.5C 608.708,431.717 613.708,420.384 620.5,409.5 Z"/></g>
<g><path style="opacity:0.995" fill="#f4921c" d="M 1350.5,415.5 C 1359.99,425.649 1368.32,436.649 1375.5,448.5C 1377.17,451.828 1378.83,455.162 1380.5,458.5C 1379.17,474.653 1378.5,491.153 1378.5,508C 1378.51,525.209 1378.85,542.376 1379.5,559.5C 1372.01,551.838 1364.67,544.004 1357.5,536C 1355.48,536.451 1353.48,537.284 1351.5,538.5C 1350.88,538.389 1350.38,538.056 1350,537.5C 1349.17,496.665 1349.34,455.998 1350.5,415.5 Z"/></g>
<g><path style="opacity:1" fill="#f8ce08" d="M 512.5,415.5 C 518.653,415.982 522.319,419.315 523.5,425.5C 522.476,430.353 519.476,432.186 514.5,431C 509.174,426.259 508.508,421.093 512.5,415.5 Z"/></g>
<g><path style="opacity:0.982" fill="#ec3f22" d="M 368.5,438.5 C 367.448,439.53 366.114,440.197 364.5,440.5C 353.123,436.806 341.457,435.806 329.5,437.5C 326.932,434.015 326.432,430.348 328,426.5C 334.458,422.853 341.292,420.187 348.5,418.5C 351.324,418.83 353.991,419.664 356.5,421C 361.138,426.457 365.138,432.29 368.5,438.5 Z"/></g>
<g><path style="opacity:1" fill="#f7cc08" d="M 495.5,424.5 C 502.718,425.883 505.884,430.217 505,437.5C 500.615,441.756 496.615,441.423 493,436.5C 490.319,431.541 491.152,427.541 495.5,424.5 Z"/></g>
<g><path style="opacity:1" fill="#f8cc09" d="M 477.5,433.5 C 483.747,433.575 487.414,436.742 488.5,443C 487.378,447.732 484.378,449.732 479.5,449C 475.227,445.779 473.394,441.612 474,436.5C 475.145,435.364 476.312,434.364 477.5,433.5 Z"/></g>
<g><path style="opacity:1" fill="#f8cb09" d="M 459.5,442.5 C 464.407,442.551 467.907,444.884 470,449.5C 470.833,456 468,458.833 461.5,458C 457.761,454.969 455.927,451.136 456,446.5C 456.69,444.65 457.856,443.316 459.5,442.5 Z"/></g>
<g><path style="opacity:1" fill="#074254" d="M 1481.5,465.5 C 1478.16,463.665 1474.49,462.498 1470.5,462C 1464.11,461.465 1457.78,461.465 1451.5,462C 1460.23,456.149 1469.9,453.649 1480.5,454.5C 1487.59,456.14 1494.42,458.474 1501,461.5C 1507.95,457.945 1515.11,454.779 1522.5,452C 1527.01,451.599 1531.51,451.099 1536,450.5C 1541.01,453.653 1546.17,456.653 1551.5,459.5C 1530.95,456.075 1514.45,462.741 1502,479.5C 1496.48,472.986 1489.65,468.319 1481.5,465.5 Z"/></g>
<g><path style="opacity:1" fill="#f8cc08" d="M 440.5,451.5 C 447.469,450.47 451.136,453.47 451.5,460.5C 451.75,464.421 449.917,466.754 446,467.5C 441.464,465.79 438.964,462.457 438.5,457.5C 438.363,455.159 439.03,453.159 440.5,451.5 Z"/></g>
<g><path style="opacity:0.999" fill="#ec4023" d="M 523.5,484.5 C 506.526,491.15 489.859,498.65 473.5,507C 469.258,509.61 465.258,512.443 461.5,515.5C 458.531,516.466 456.198,518.133 454.5,520.5C 444.44,528.938 432.773,532.604 419.5,531.5C 418.781,529.909 417.781,528.409 416.5,527C 408.936,526.441 401.603,524.941 394.5,522.5C 397.598,520.108 400.931,517.942 404.5,516C 448.338,494.248 492.338,472.748 536.5,451.5C 536.453,454.568 535.953,457.568 535,460.5C 532.466,467.102 530.133,473.769 528,480.5C 526.951,482.384 525.451,483.718 523.5,484.5 Z"/></g>
<g><path style="opacity:0.994" fill="#f38d20" d="M 1380.5,458.5 C 1402.47,499.307 1411.47,542.974 1407.5,589.5C 1397.83,579.827 1388.49,569.827 1379.5,559.5C 1378.85,542.376 1378.51,525.209 1378.5,508C 1378.5,491.153 1379.17,474.653 1380.5,458.5 Z"/></g>
<g><path style="opacity:0.997" fill="#ed4122" d="M 373.5,515.5 C 372.078,515.291 370.745,514.791 369.5,514C 365.414,509.707 361.081,506.54 356.5,504.5C 355.995,501.159 355.828,497.826 356,494.5C 360.509,482.828 365.175,471.161 370,459.5C 371.011,458.663 372.178,458.33 373.5,458.5C 374.521,477.143 375.021,495.81 375,514.5C 374.617,515.056 374.117,515.389 373.5,515.5 Z"/></g>
<g><path style="opacity:1" fill="#f8cd07" d="M 422.5,460.5 C 429.214,459.991 433.214,463.157 434.5,470C 431.177,477.777 427.01,478.277 422,471.5C 419.866,467.647 420.033,463.98 422.5,460.5 Z"/></g>
<g><path style="opacity:1" fill="#facf0b" d="M 981.5,439.5 C 981.167,520.503 981.5,601.503 982.5,682.5C 984.264,680.722 986.264,679.389 988.5,678.5C 984.793,683.208 980.46,687.208 975.5,690.5C 970.607,679.713 965.44,669.046 960,658.5C 931.774,584.734 937.274,513.734 976.5,445.5C 978.167,443.5 979.833,441.5 981.5,439.5 Z"/></g>
<g><path style="opacity:1" fill="#094355" d="M 1642.5,478.5 C 1640.51,476.837 1638.17,475.67 1635.5,475C 1631.17,474.667 1626.83,474.333 1622.5,474C 1621.5,473.167 1620.5,472.333 1619.5,471.5C 1621.32,470.185 1622.98,468.685 1624.5,467C 1631.97,466.037 1639.31,466.537 1646.5,468.5C 1649.35,470.425 1652.35,472.091 1655.5,473.5C 1662.85,468.439 1671.01,465.439 1680,464.5C 1685.41,466.419 1690.58,468.919 1695.5,472C 1685.28,470.234 1675.61,471.9 1666.5,477C 1663.9,481.291 1660.23,484.124 1655.5,485.5C 1651.07,483.448 1646.73,481.114 1642.5,478.5 Z"/></g>
<g><path style="opacity:0.989" fill="#fad104" d="M 394.5,522.5 C 401.603,524.941 408.936,526.441 416.5,527C 417.781,528.409 418.781,529.909 419.5,531.5C 416.456,544.851 414.123,558.351 412.5,572C 413.499,600.832 420.666,627.999 434,653.5C 443.829,670.325 454.829,686.325 467,701.5C 474.469,709.97 482.302,718.137 490.5,726C 506.904,741.036 523.904,755.369 541.5,769C 593.489,805.602 648.489,837.269 706.5,864C 724.5,872 742.5,880 760.5,888C 818.841,911.34 877.841,933.006 937.5,953C 1075.08,995.895 1214.41,1032.23 1355.5,1062C 1478.59,1086.55 1602.26,1107.88 1726.5,1126C 1823.92,1139.18 1921.58,1150.18 2019.5,1159C 2041.22,1159.88 2062.88,1161.38 2084.5,1163.5C 2084.77,1165.45 2084.11,1166.95 2082.5,1168C 1929.18,1177.89 1775.84,1177.89 1622.5,1168C 1516.44,1160.56 1410.78,1149.56 1305.5,1135C 1166.06,1115.05 1028.39,1086.72 892.5,1050C 833.853,1033.45 775.853,1015.12 718.5,995C 658.073,972.783 599.407,946.783 542.5,917C 498.178,893.012 457.178,864.346 419.5,831C 392.94,806.629 371.107,778.796 354,747.5C 322.515,685.387 321.515,622.72 351,559.5C 358.433,544.953 366.6,530.953 375.5,517.5C 377.782,516.61 380.115,516.444 382.5,517C 386.368,519.123 390.368,520.956 394.5,522.5 Z"/></g>
<g><path style="opacity:0.707" fill="#f6efef" d="M 461.5,515.5 C 460.111,518.279 459.278,521.279 459,524.5C 458.617,525.056 458.117,525.389 457.5,525.5C 456.248,523.999 455.248,522.332 454.5,520.5C 456.198,518.133 458.531,516.466 461.5,515.5 Z"/></g>
<g><path style="opacity:0.997" fill="#a2cb3a" d="M 1986.5,853.5 C 1984.32,855.164 1982.49,854.83 1981,852.5C 1952,818.84 1922.34,785.84 1892,753.5C 1829.72,806.071 1767.89,859.237 1706.5,913C 1704.67,914.113 1703.84,915.613 1704,917.5C 1743.73,889.382 1783.9,861.882 1824.5,835C 1825.79,834.51 1827.13,834.343 1828.5,834.5C 1827.31,851.415 1825.31,868.248 1822.5,885C 1822.83,885.833 1823.17,886.667 1823.5,887.5C 1846.04,853.59 1868.71,819.757 1891.5,786C 1892.5,785.333 1893.5,785.333 1894.5,786C 1922.08,820.733 1949.41,855.566 1976.5,890.5C 1976.89,893.553 1976.22,896.22 1974.5,898.5C 1948.2,865.262 1922.37,831.596 1897,797.5C 1895.54,794.79 1893.54,794.124 1891,795.5C 1865.58,837.334 1839.92,879.001 1814,920.5C 1814.32,898.051 1816.15,875.717 1819.5,853.5C 1819.17,850.833 1818.83,848.167 1818.5,845.5C 1757.41,891.427 1695.91,936.76 1634,981.5C 1632.46,980.423 1632.46,979.089 1634,977.5C 1663.89,942.677 1693.06,907.344 1721.5,871.5C 1721.17,870.833 1720.83,870.167 1720.5,869.5C 1696.49,858.478 1672.49,848.145 1648.5,838.5C 1659.77,849.936 1670.93,861.602 1682,873.5C 1682.69,874.332 1682.52,874.998 1681.5,875.5C 1637.34,851.587 1593.34,827.421 1549.5,803C 1485.83,727.333 1422.17,651.667 1358.5,576C 1357.22,575.316 1356.05,575.483 1355,576.5C 1339.26,596.41 1324.09,616.743 1309.5,637.5C 1309.83,637.833 1310.17,638.167 1310.5,638.5C 1319.39,634.701 1328.39,631.368 1337.5,628.5C 1322.04,650.48 1305.54,671.814 1288,692.5C 1287.57,700.52 1287.9,708.52 1289,716.5C 1294.53,755.475 1299.86,794.475 1305,833.5C 1305.83,837.541 1305.66,841.541 1304.5,845.5C 1289.33,801.824 1274.16,758.157 1259,714.5C 1257.95,713.483 1256.78,713.316 1255.5,714C 1205.95,763.554 1156.45,813.054 1107,862.5C 1098.24,892.619 1090.4,922.953 1083.5,953.5C 1081.42,953.029 1079.42,952.363 1077.5,951.5C 1078.78,942.995 1079.44,934.328 1079.5,925.5C 1078.75,900.162 1078.25,874.829 1078,849.5C 1113.06,811.614 1147.56,773.281 1181.5,734.5C 1181,733.479 1180.33,733.312 1179.5,734C 1145,755.167 1110.5,776.333 1076,797.5C 1075.33,796.5 1075.33,795.5 1076,794.5C 1090.33,776.5 1104.67,758.5 1119,740.5C 1120.42,737.97 1120.75,735.303 1120,732.5C 1094.6,708.093 1068.93,684.093 1043,660.5C 1041.74,660.759 1040.74,661.426 1040,662.5C 1006.04,712.264 972.204,762.097 938.5,812C 938.85,813.257 939.517,813.591 940.5,813C 966.659,794.42 992.992,776.087 1019.5,758C 1020.33,757.312 1021,757.479 1021.5,758.5C 987.752,806.242 954.418,854.242 921.5,902.5C 917.213,902.524 913.547,901.19 910.5,898.5C 911.398,897.842 912.398,897.176 913.5,896.5C 934.333,866.167 955.167,835.833 976,805.5C 976.749,804.365 976.583,803.365 975.5,802.5C 956.125,813.182 936.791,823.182 917.5,832.5C 938.25,795.3 958.584,758.3 978.5,721.5C 929.986,769.847 881.319,818.014 832.5,866C 831.099,866.41 829.766,866.91 828.5,867.5C 823.653,866.74 818.986,865.406 814.5,863.5C 815.306,859.726 817.639,857.226 821.5,856C 892.527,783.973 963.86,712.307 1035.5,641C 1038.83,639 1042.17,639 1045.5,641C 1077.85,664.33 1110.51,687.33 1143.5,710C 1144.83,710.667 1146.17,710.667 1147.5,710C 1204.54,664.165 1261.87,618.832 1319.5,574C 1321.83,571.667 1324.17,569.333 1326.5,567C 1336.23,559.717 1346.06,552.55 1356,545.5C 1357.22,545.862 1358.39,546.362 1359.5,547C 1428.31,622.149 1496.81,697.649 1565,773.5C 1571.17,781.338 1579,786.838 1588.5,790C 1633.16,809.328 1677.82,828.661 1722.5,848C 1729.5,852.001 1736.83,855.168 1744.5,857.5C 1747.11,856.863 1749.44,855.696 1751.5,854C 1792.53,818.971 1833.53,783.971 1874.5,749C 1880.03,744.64 1885.69,740.474 1891.5,736.5C 1895.77,737.604 1898.61,740.271 1900,744.5C 1909.33,754.5 1918.67,764.5 1928,774.5C 1946.24,795.746 1964.9,816.746 1984,837.5C 1987.49,842.393 1988.32,847.726 1986.5,853.5 Z"/></g>
<g><path style="opacity:0.998" fill="#4f9241" d="M 1974.5,898.5 C 1973.97,904.608 1972.81,910.608 1971,916.5C 1950.75,984.487 1925.91,1050.65 1896.5,1115C 1894.47,1116.01 1892.3,1116.51 1890,1116.5C 1838.18,1106 1786.34,1095.5 1734.5,1085C 1606.22,1063.24 1478.22,1039.9 1350.5,1015C 1260.88,997.065 1171.88,976.565 1083.5,953.5C 1090.4,922.953 1098.24,892.619 1107,862.5C 1156.45,813.054 1205.95,763.554 1255.5,714C 1256.78,713.316 1257.95,713.483 1259,714.5C 1274.16,758.157 1289.33,801.824 1304.5,845.5C 1305.66,841.541 1305.83,837.541 1305,833.5C 1299.86,794.475 1294.53,755.475 1289,716.5C 1287.9,708.52 1287.57,700.52 1288,692.5C 1305.54,671.814 1322.04,650.48 1337.5,628.5C 1328.39,631.368 1319.39,634.701 1310.5,638.5C 1310.17,638.167 1309.83,637.833 1309.5,637.5C 1324.09,616.743 1339.26,596.41 1355,576.5C 1356.05,575.483 1357.22,575.316 1358.5,576C 1422.17,651.667 1485.83,727.333 1549.5,803C 1593.34,827.421 1637.34,851.587 1681.5,875.5C 1682.52,874.998 1682.69,874.332 1682,873.5C 1670.93,861.602 1659.77,849.936 1648.5,838.5C 1672.49,848.145 1696.49,858.478 1720.5,869.5C 1720.83,870.167 1721.17,870.833 1721.5,871.5C 1693.06,907.344 1663.89,942.677 1634,977.5C 1632.46,979.089 1632.46,980.423 1634,981.5C 1695.91,936.76 1757.41,891.427 1818.5,845.5C 1818.83,848.167 1819.17,850.833 1819.5,853.5C 1816.15,875.717 1814.32,898.051 1814,920.5C 1839.92,879.001 1865.58,837.334 1891,795.5C 1893.54,794.124 1895.54,794.79 1897,797.5C 1922.37,831.596 1948.2,865.262 1974.5,898.5 Z"/></g>
<g><path style="opacity:1" fill="#fcfdfb" d="M 1306.5,599.5 C 1307.5,599.47 1308.16,599.97 1308.5,601C 1303.7,616.398 1298.7,631.731 1293.5,647C 1293.83,647.833 1294.17,648.667 1294.5,649.5C 1301.71,646.528 1309.05,644.862 1316.5,644.5C 1305.46,658.029 1294.3,671.363 1283,684.5C 1281.14,689.324 1280.3,694.324 1280.5,699.5C 1282.32,713.113 1282.82,726.78 1282,740.5C 1275,729.167 1268,717.833 1261,706.5C 1260.2,705.196 1259.03,704.529 1257.5,704.5C 1253.79,706.04 1250.45,708.207 1247.5,711C 1223.46,731.764 1198.96,751.931 1174,771.5C 1180.32,754.842 1187.82,738.509 1196.5,722.5C 1196,722.167 1195.5,721.833 1195,721.5C 1174.17,730.333 1153.67,739.833 1133.5,750C 1132.36,750.749 1131.36,750.583 1130.5,749.5C 1189.51,699.823 1248.17,649.823 1306.5,599.5 Z"/></g>
<g><path style="opacity:0.997" fill="#4f9241" d="M 1077.5,951.5 C 1052.7,945.177 1028.03,938.343 1003.5,931C 980.229,923.132 956.896,915.465 933.5,908C 929.29,906.391 925.29,904.558 921.5,902.5C 954.418,854.242 987.752,806.242 1021.5,758.5C 1021,757.479 1020.33,757.312 1019.5,758C 992.992,776.087 966.659,794.42 940.5,813C 939.517,813.591 938.85,813.257 938.5,812C 972.204,762.097 1006.04,712.264 1040,662.5C 1040.74,661.426 1041.74,660.759 1043,660.5C 1068.93,684.093 1094.6,708.093 1120,732.5C 1120.75,735.303 1120.42,737.97 1119,740.5C 1104.67,758.5 1090.33,776.5 1076,794.5C 1075.33,795.5 1075.33,796.5 1076,797.5C 1110.5,776.333 1145,755.167 1179.5,734C 1180.33,733.312 1181,733.479 1181.5,734.5C 1147.56,773.281 1113.06,811.614 1078,849.5C 1078.25,874.829 1078.75,900.162 1079.5,925.5C 1079.44,934.328 1078.78,942.995 1077.5,951.5 Z"/></g>
<g><path style="opacity:0.902" fill="#fe0000" d="M 312.5,704.5 C 313.822,704.33 314.989,704.663 316,705.5C 321.145,714.791 325.479,724.458 329,734.5C 330.993,745.866 327.493,755.032 318.5,762C 308.641,769.133 297.641,771.466 285.5,769C 280.844,767.353 277.011,764.52 274,760.5C 272.036,755.918 269.703,751.585 267,747.5C 257.699,752.233 248.199,756.566 238.5,760.5C 237.914,760.291 237.414,759.957 237,759.5C 234.936,755.039 232.602,750.706 230,746.5C 229.251,745.365 229.417,744.365 230.5,743.5C 258.34,731.267 285.673,718.267 312.5,704.5 Z M 302.5,730.5 C 303.496,730.414 304.329,730.748 305,731.5C 312.107,741.967 309.274,748.301 296.5,750.5C 294.701,750.423 293.034,749.923 291.5,749C 288.962,745.553 287.295,741.72 286.5,737.5C 292.36,736.234 297.693,733.9 302.5,730.5 Z"/></g>
<g><path style="opacity:0.992" fill="#fdfdfb" d="M 910.5,898.5 C 909.167,898.5 907.833,898.5 906.5,898.5C 907.413,889.606 908.747,880.772 910.5,872C 910.167,871.5 909.833,871 909.5,870.5C 902.453,877.216 895.453,883.883 888.5,890.5C 882.689,889.733 877.022,888.233 871.5,886C 860.805,880.88 849.805,876.547 838.5,873C 835.015,871.245 831.681,869.412 828.5,867.5C 829.766,866.91 831.099,866.41 832.5,866C 881.319,818.014 929.986,769.847 978.5,721.5C 958.584,758.3 938.25,795.3 917.5,832.5C 936.791,823.182 956.125,813.182 975.5,802.5C 976.583,803.365 976.749,804.365 976,805.5C 955.167,835.833 934.333,866.167 913.5,896.5C 912.398,897.176 911.398,897.842 910.5,898.5 Z"/></g>
<g><path style="opacity:0.995" fill="#fcfcf9" d="M 1986.5,853.5 C 1982.71,865.662 1979.38,877.995 1976.5,890.5C 1949.41,855.566 1922.08,820.733 1894.5,786C 1893.5,785.333 1892.5,785.333 1891.5,786C 1868.71,819.757 1846.04,853.59 1823.5,887.5C 1823.17,886.667 1822.83,885.833 1822.5,885C 1825.31,868.248 1827.31,851.415 1828.5,834.5C 1827.13,834.343 1825.79,834.51 1824.5,835C 1783.9,861.882 1743.73,889.382 1704,917.5C 1703.84,915.613 1704.67,914.113 1706.5,913C 1767.89,859.237 1829.72,806.071 1892,753.5C 1922.34,785.84 1952,818.84 1981,852.5C 1982.49,854.83 1984.32,855.164 1986.5,853.5 Z"/></g>
<g><path style="opacity:0.887" fill="#fe0000" d="M 337.5,761.5 C 338.978,761.238 340.311,761.571 341.5,762.5C 347.8,773.962 354.3,785.296 361,796.5C 361.781,797.944 361.614,799.277 360.5,800.5C 355.731,803.301 350.898,805.967 346,808.5C 343.698,806.523 341.698,804.19 340,801.5C 337.706,796.612 335.039,791.945 332,787.5C 330.2,789.317 328.034,790.484 325.5,791C 322.764,792.362 320.431,794.196 318.5,796.5C 322.74,802.447 325.907,808.78 328,815.5C 324.423,818.373 320.589,820.873 316.5,823C 314.833,823.667 313.167,823.667 311.5,823C 307.609,817.383 304.109,811.549 301,805.5C 295.883,808.64 290.716,811.64 285.5,814.5C 289.902,821.472 293.902,828.639 297.5,836C 292.517,841.158 286.517,844.158 279.5,845C 273.847,835.018 268.014,825.184 262,815.5C 260.487,812.976 259.82,810.309 260,807.5C 286.003,792.303 311.837,776.97 337.5,761.5 Z"/></g>
<g><path style="opacity:0.898" fill="#fe0000" d="M 362.5,811.5 C 380.677,810.669 391.01,819.335 393.5,837.5C 392.977,846.938 388.977,854.438 381.5,860C 375.929,856.406 371.596,851.406 368.5,845C 369.651,843.177 370.818,841.344 372,839.5C 372.833,833.667 370.333,831.167 364.5,832C 358.828,834.768 356.994,839.268 359,845.5C 364.658,857.821 363.658,869.487 356,880.5C 344.738,891.192 331.904,893.692 317.5,888C 301.913,872.973 301.58,857.639 316.5,842C 317.833,841.333 319.167,841.333 320.5,842C 324.028,846.696 327.362,851.529 330.5,856.5C 328.808,858.359 327.308,860.359 326,862.5C 325.611,869.106 328.778,871.939 335.5,871C 338.723,868.784 340.723,865.784 341.5,862C 339.282,854.627 337.615,847.127 336.5,839.5C 339.368,824.637 348.035,815.303 362.5,811.5 Z"/></g>
<g><path style="opacity:0.906" fill="#fe0000" d="M 399.5,857.5 C 413.126,854.874 424.292,858.874 433,869.5C 438.655,879.938 439.989,890.938 437,902.5C 435.057,908.328 432.724,913.995 430,919.5C 426.853,922.468 424.186,925.802 422,929.5C 417.833,933 413.667,936.5 409.5,940C 394.499,948.891 379.832,948.557 365.5,939C 358.252,932.094 355.252,923.594 356.5,913.5C 355.808,901.923 358.975,891.589 366,882.5C 374.252,870.138 385.419,861.804 399.5,857.5 Z M 402.5,877.5 C 414.47,879.431 419.637,886.431 418,898.5C 413.548,912.62 404.214,921.62 390,925.5C 378.772,922.704 374.439,915.704 377,904.5C 381.43,891.426 389.93,882.426 402.5,877.5 Z"/></g>
<g><path style="opacity:0.353" fill="#fcfcfc" d="M 808.5,857.5 C 811.95,856.756 813.616,858.09 813.5,861.5C 810.05,862.244 808.384,860.91 808.5,857.5 Z"/></g>
<g><path style="opacity:0.978" fill="#a0c840" d="M 906.5,898.5 C 900.222,896.409 894.222,893.743 888.5,890.5C 895.453,883.883 902.453,877.216 909.5,870.5C 909.833,871 910.167,871.5 910.5,872C 908.747,880.772 907.413,889.606 906.5,898.5 Z"/></g>
<g><path style="opacity:0.898" fill="#fe0000" d="M 452.5,891.5 C 458.048,893.607 463.381,896.274 468.5,899.5C 468.833,900.5 469.167,901.5 469.5,902.5C 467.591,920.791 466.757,939.125 467,957.5C 475.279,943.113 483.446,928.613 491.5,914C 493.635,913.365 495.635,913.699 497.5,915C 501.374,917.432 505.041,920.098 508.5,923C 493.538,950.429 478.205,977.596 462.5,1004.5C 457.351,1001.32 452.018,998.657 446.5,996.5C 447.791,976.841 448.625,957.174 449,937.5C 442.412,949.007 436.079,960.674 430,972.5C 427.667,975.833 425.333,979.167 423,982.5C 417.688,979.434 412.522,976.268 407.5,973C 422.774,945.916 437.774,918.75 452.5,891.5 Z"/></g>
<g><path style="opacity:0.899" fill="#fe0000" d="M 533.5,932.5 C 539.599,935.049 545.599,937.882 551.5,941C 552.116,942.4 552.449,943.9 552.5,945.5C 547.064,976.114 542.064,1006.78 537.5,1037.5C 536.127,1037.66 534.793,1037.49 533.5,1037C 528.891,1034.69 524.391,1032.19 520,1029.5C 520.196,1024.71 520.696,1019.88 521.5,1015C 521.089,1012.79 519.755,1011.45 517.5,1011C 511.568,1008.69 505.734,1006.19 500,1003.5C 497.012,1008.48 493.345,1012.82 489,1016.5C 483.163,1014.23 477.663,1011.39 472.5,1008C 492.471,982.568 512.805,957.401 533.5,932.5 Z M 529.5,966.5 C 530.139,967.097 530.472,967.93 530.5,969C 529.046,977.274 527.212,985.441 525,993.5C 520.881,991.529 517.047,989.196 513.5,986.5C 518.447,979.55 523.78,972.884 529.5,966.5 Z"/></g>
<g><path style="opacity:0.898" fill="#fe0000" d="M 588.5,959.5 C 598.418,962.977 608.085,967.143 617.5,972C 623.94,974.773 627.774,979.606 629,986.5C 631.875,1004.93 625.375,1018.76 609.5,1028C 604.905,1029.39 600.239,1029.73 595.5,1029C 590.478,1027.15 585.478,1025.32 580.5,1023.5C 576.849,1033.28 572.516,1042.78 567.5,1052C 561.048,1051.44 555.714,1048.77 551.5,1044C 554.126,1034.92 557.96,1026.42 563,1018.5C 571.214,998.686 579.714,979.019 588.5,959.5 Z M 597.5,985.5 C 609.6,988.03 612.767,994.697 607,1005.5C 604.347,1008.19 601.18,1009.03 597.5,1008C 594.708,1007.1 592.041,1005.94 589.5,1004.5C 593.007,998.491 595.673,992.157 597.5,985.5 Z"/></g>
<g><path style="opacity:0.879" fill="#fe0000" d="M 642.5,984.5 C 649.374,985.107 655.707,987.274 661.5,991C 652.173,1013.64 642.839,1036.31 633.5,1059C 634.444,1060.48 635.777,1061.48 637.5,1062C 643.33,1063.09 648.33,1065.59 652.5,1069.5C 651.066,1073.8 649.566,1078.14 648,1082.5C 647.221,1083.73 646.221,1084.73 645,1085.5C 632.023,1081.24 619.857,1075.91 608.5,1069.5C 620.63,1041.43 631.964,1013.1 642.5,984.5 Z"/></g>
<g><path style="opacity:0.891" fill="#fe0000" d="M 686.5,1001.5 C 699.978,1005.83 713.311,1010.66 726.5,1016C 727.044,1023.21 725.044,1029.71 720.5,1035.5C 713.385,1032.24 706.052,1029.57 698.5,1027.5C 695.156,1031.51 693.156,1036.18 692.5,1041.5C 699.48,1044.32 706.146,1047.66 712.5,1051.5C 710.438,1057.29 708.104,1062.96 705.5,1068.5C 698.698,1065.68 691.864,1063.01 685,1060.5C 683.367,1065.73 681.534,1070.9 679.5,1076C 680.52,1078.03 682.187,1079.36 684.5,1080C 690.323,1082.46 696.323,1084.29 702.5,1085.5C 700.421,1092.4 697.754,1099.07 694.5,1105.5C 682.683,1100.51 670.683,1096.01 658.5,1092C 656.522,1091.52 655.189,1090.35 654.5,1088.5C 665.566,1059.64 676.232,1030.64 686.5,1001.5 Z"/></g>
<g><path style="opacity:0.896" fill="#fe0000" d="M 744.5,1023.5 C 770.286,1023.62 780.619,1036.28 775.5,1061.5C 769.303,1060.38 763.303,1058.55 757.5,1056C 758.036,1051.31 756.369,1047.31 752.5,1044C 747.678,1043.97 744.678,1046.47 743.5,1051.5C 745.1,1054.94 746.933,1058.27 749,1061.5C 767.533,1074.45 770.533,1090.45 758,1109.5C 747.839,1119.11 736.339,1120.95 723.5,1115C 711.752,1105.82 708.085,1093.99 712.5,1079.5C 718.66,1081.77 724.993,1083.44 731.5,1084.5C 729.13,1090.53 730.797,1095.03 736.5,1098C 744.209,1097.09 746.709,1092.93 744,1085.5C 738.279,1079.78 732.613,1074.11 727,1068.5C 721.558,1055.48 722.892,1043.15 731,1031.5C 735.189,1028.11 739.689,1025.44 744.5,1023.5 Z"/></g>
<g><path style="opacity:0.887" fill="#fe0000" d="M 791.5,1038.5 C 797.5,1039.83 803.5,1041.17 809.5,1042.5C 805.734,1055.05 802.234,1067.72 799,1080.5C 793.641,1097.94 787.975,1115.27 782,1132.5C 781.586,1132.96 781.086,1133.29 780.5,1133.5C 775.276,1131.42 769.942,1129.76 764.5,1128.5C 773.498,1098.51 782.498,1068.51 791.5,1038.5 Z"/></g>
<g><path style="opacity:0.908" fill="#fe0000" d="M 818.5,1046.5 C 828.717,1049.76 839.05,1052.59 849.5,1055C 860.182,1059.5 865.515,1067.67 865.5,1079.5C 864.904,1089.92 861.237,1099.08 854.5,1107C 850.61,1109.95 846.277,1111.78 841.5,1112.5C 844.266,1125.82 845.599,1139.15 845.5,1152.5C 839.976,1150.4 834.309,1148.9 828.5,1148C 827.572,1147.61 826.905,1146.95 826.5,1146C 825.023,1134.54 823.856,1123.04 823,1111.5C 822.581,1110.33 821.915,1109.33 821,1108.5C 816.751,1119.16 813.584,1130.16 811.5,1141.5C 805.082,1140.58 798.749,1139.25 792.5,1137.5C 800.705,1107.01 809.371,1076.68 818.5,1046.5 Z M 830.5,1071.5 C 845.776,1072.27 849.61,1079.27 842,1092.5C 841.25,1093.13 840.416,1093.63 839.5,1094C 834.733,1094.47 830.067,1093.97 825.5,1092.5C 826.957,1085.46 828.623,1078.46 830.5,1071.5 Z"/></g>
<g><path style="opacity:0.909" fill="#fd0000" d="M 898.5,1068.5 C 905.487,1069.62 912.321,1071.29 919,1073.5C 920.106,1105.82 920.606,1138.16 920.5,1170.5C 914.142,1169.33 907.809,1167.99 901.5,1166.5C 901.5,1160.5 901.5,1154.5 901.5,1148.5C 893.992,1147.67 886.659,1146 879.5,1143.5C 875.932,1148.29 872.598,1153.29 869.5,1158.5C 864.172,1157 858.839,1155.5 853.5,1154C 852.572,1153.61 851.905,1152.95 851.5,1152C 867.284,1124.27 882.951,1096.43 898.5,1068.5 Z M 900.5,1100.5 C 901.494,1109.65 901.827,1118.99 901.5,1128.5C 897.167,1127.83 892.833,1127.17 888.5,1126.5C 888.687,1124.44 889.187,1122.44 890,1120.5C 894.305,1114.22 897.805,1107.55 900.5,1100.5 Z"/></g>
<g><path style="opacity:0.906" fill="#fe0000" d="M 944.5,1080.5 C 950.623,1082.16 956.79,1083.49 963,1084.5C 967.043,1103.34 971.71,1122.01 977,1140.5C 981.46,1124 984.96,1107.33 987.5,1090.5C 993.547,1091.34 999.547,1092.51 1005.5,1094C 1006.08,1094.89 1006.41,1095.89 1006.5,1097C 1000.28,1126.61 993.612,1156.11 986.5,1185.5C 980.292,1185.11 974.292,1183.78 968.5,1181.5C 964.283,1163.3 959.45,1145.3 954,1127.5C 949.7,1143.7 946.2,1160.03 943.5,1176.5C 937.134,1175.33 930.8,1173.99 924.5,1172.5C 930.855,1141.75 937.521,1111.08 944.5,1080.5 Z"/></g>
<g><path style="opacity:0.889" fill="#fe0000" d="M 1033.5,1102.5 C 1039.62,1102.93 1045.62,1104.09 1051.5,1106C 1051.96,1106.41 1052.29,1106.91 1052.5,1107.5C 1045.13,1137.42 1038.13,1167.42 1031.5,1197.5C 1026.11,1196.65 1020.78,1195.49 1015.5,1194C 1014.57,1193.61 1013.91,1192.95 1013.5,1192C 1020.25,1162.17 1026.92,1132.34 1033.5,1102.5 Z"/></g>
<g><path style="opacity:0.9" fill="#fe0000" d="M 1060.5,1107.5 C 1066.81,1108.29 1072.97,1109.62 1079,1111.5C 1083.53,1130.62 1088.53,1149.62 1094,1168.5C 1097.18,1151.1 1100.68,1133.76 1104.5,1116.5C 1110.5,1117.5 1116.5,1118.5 1122.5,1119.5C 1116.98,1150.6 1110.98,1181.6 1104.5,1212.5C 1097.95,1212.19 1091.61,1210.86 1085.5,1208.5C 1080.77,1189.81 1075.94,1171.14 1071,1152.5C 1067.21,1169.62 1063.38,1186.62 1059.5,1203.5C 1053.48,1202.65 1047.48,1201.65 1041.5,1200.5C 1048.47,1169.63 1054.81,1138.63 1060.5,1107.5 Z"/></g>
<g><path style="opacity:0.914" fill="#fe0000" d="M 1129.5,1121.5 C 1142.71,1123.51 1155.71,1126.34 1168.5,1130C 1179.44,1138.05 1184.94,1148.88 1185,1162.5C 1186.47,1180.74 1181.31,1196.74 1169.5,1210.5C 1162.87,1216.54 1155.04,1219.54 1146,1219.5C 1135.11,1218.16 1124.28,1216.49 1113.5,1214.5C 1118.51,1183.41 1123.85,1152.41 1129.5,1121.5 Z M 1144.5,1146.5 C 1158.57,1146.24 1165.9,1153.24 1166.5,1167.5C 1166.03,1176.05 1163.7,1184.05 1159.5,1191.5C 1152.48,1198.91 1144.48,1200.24 1135.5,1195.5C 1137.86,1179.03 1140.86,1162.7 1144.5,1146.5 Z"/></g>
<g><path style="opacity:0.908" fill="#fe0000" d="M 1222.5,1136.5 C 1238.93,1135.43 1250.43,1142.43 1257,1157.5C 1262.51,1176.43 1261.01,1194.76 1252.5,1212.5C 1250.08,1214.75 1248.25,1217.42 1247,1220.5C 1230.62,1236.1 1213.95,1236.43 1197,1221.5C 1185,1200.34 1184.33,1178.68 1195,1156.5C 1198.14,1151.36 1201.98,1146.86 1206.5,1143C 1211.43,1139.53 1216.76,1137.37 1222.5,1136.5 Z M 1224.5,1158.5 C 1228.76,1158.73 1232.6,1160.06 1236,1162.5C 1241.67,1171.53 1243,1181.2 1240,1191.5C 1238.47,1195.09 1237.14,1198.76 1236,1202.5C 1223.49,1214.44 1213.83,1212.44 1207,1196.5C 1204.44,1182.24 1208.27,1170.07 1218.5,1160C 1220.71,1159.81 1222.71,1159.31 1224.5,1158.5 Z"/></g>
<g><path style="opacity:0.905" fill="#fd0000" d="M 1271.5,1144.5 C 1277.82,1145.59 1284.15,1146.59 1290.5,1147.5C 1296.56,1166.18 1302.73,1184.85 1309,1203.5C 1311.5,1185.87 1313.66,1168.2 1315.5,1150.5C 1321.51,1151.22 1327.51,1152.06 1333.5,1153C 1334.1,1154.06 1334.43,1155.23 1334.5,1156.5C 1329.84,1186.43 1325.84,1216.43 1322.5,1246.5C 1315.78,1246.66 1309.28,1245.66 1303,1243.5C 1297,1225.5 1291,1207.5 1285,1189.5C 1281.74,1206.04 1279.24,1222.71 1277.5,1239.5C 1276.67,1239.83 1275.83,1240.17 1275,1240.5C 1269.6,1239.6 1264.27,1238.6 1259,1237.5C 1263.38,1206.57 1267.54,1175.57 1271.5,1144.5 Z"/></g>
<g><path style="opacity:0.906" fill="#fd0000" d="M 1344.5,1154.5 C 1358.46,1156.57 1372.46,1158.4 1386.5,1160C 1387.12,1161.4 1387.45,1162.9 1387.5,1164.5C 1386.83,1169.51 1386.17,1174.51 1385.5,1179.5C 1377.07,1179.24 1368.73,1178.24 1360.5,1176.5C 1359.01,1181.8 1358.17,1187.14 1358,1192.5C 1365.08,1193.86 1372.24,1194.86 1379.5,1195.5C 1379.08,1201.86 1378.41,1208.2 1377.5,1214.5C 1370.45,1214.14 1363.45,1213.47 1356.5,1212.5C 1355.31,1217.8 1354.31,1223.13 1353.5,1228.5C 1353.82,1229.65 1354.48,1230.48 1355.5,1231C 1362.81,1232.07 1370.15,1232.9 1377.5,1233.5C 1377.55,1240.19 1377.21,1246.86 1376.5,1253.5C 1361.89,1252.03 1347.39,1250.03 1333,1247.5C 1335.74,1216.4 1339.57,1185.4 1344.5,1154.5 Z"/></g>
<g><path style="opacity:0.898" fill="#fd0000" d="M 1411.5,1161.5 C 1422.04,1160.53 1430.87,1163.86 1438,1171.5C 1442.04,1178.59 1443.54,1186.26 1442.5,1194.5C 1436.19,1193.59 1429.86,1192.75 1423.5,1192C 1422.78,1188.17 1421.12,1184.84 1418.5,1182C 1415.36,1180.96 1412.86,1181.79 1411,1184.5C 1409.28,1190.16 1410.78,1194.66 1415.5,1198C 1425.19,1202.03 1432.69,1208.53 1438,1217.5C 1442.01,1233.14 1437.84,1245.98 1425.5,1256C 1399.16,1262.65 1386,1252.48 1386,1225.5C 1386.72,1224.94 1387.56,1224.61 1388.5,1224.5C 1394.12,1225.58 1399.79,1226.24 1405.5,1226.5C 1404.27,1232.72 1406.6,1236.72 1412.5,1238.5C 1419.12,1236.77 1421.28,1232.77 1419,1226.5C 1413.05,1221.22 1406.55,1216.72 1399.5,1213C 1391.21,1206.03 1388.05,1197.2 1390,1186.5C 1392.08,1173.6 1399.25,1165.26 1411.5,1161.5 Z"/></g>
<g><path style="opacity:0.901" fill="#fd0000" d="M 1453.5,1168.5 C 1459.18,1168.74 1464.85,1169.24 1470.5,1170C 1471.58,1170.67 1472.25,1171.67 1472.5,1173C 1468.63,1202.8 1465.3,1232.63 1462.5,1262.5C 1456.16,1263.13 1449.83,1262.8 1443.5,1261.5C 1447.27,1230.54 1450.61,1199.54 1453.5,1168.5 Z"/></g>
<g><path style="opacity:0.906" fill="#fe0000" d="M 1502.5,1172.5 C 1509.55,1172.73 1516.55,1173.39 1523.5,1174.5C 1528.7,1206.52 1534.04,1238.52 1539.5,1270.5C 1532.82,1269.91 1526.16,1269.24 1519.5,1268.5C 1518.73,1263.2 1518.39,1257.87 1518.5,1252.5C 1510.46,1251.76 1502.46,1250.76 1494.5,1249.5C 1491.93,1254.64 1489.93,1259.97 1488.5,1265.5C 1481.82,1265.39 1475.15,1265.05 1468.5,1264.5C 1480.02,1233.93 1491.36,1203.26 1502.5,1172.5 Z M 1509.5,1204.5 C 1511.58,1213.63 1513.25,1222.97 1514.5,1232.5C 1509.74,1232.49 1505.07,1231.82 1500.5,1230.5C 1504.09,1222 1507.09,1213.33 1509.5,1204.5 Z"/></g>
</svg>
