<?xml version="1.0" encoding="UTF-8"?>
<!DOCTYPE svg PUBLIC "-//W3C//DTD SVG 1.1//EN" "http://www.w3.org/Graphics/SVG/1.1/DTD/svg11.dtd">
<svg xmlns="http://www.w3.org/2000/svg" version="1.1" width="282px" height="68px" style="shape-rendering:geometricPrecision; text-rendering:geometricPrecision; image-rendering:optimizeQuality; fill-rule:evenodd; clip-rule:evenodd" xmlns:xlink="http://www.w3.org/1999/xlink">
<g><path style="opacity:0.975" fill="#afddf3" d="M 74.5,6.5 C 74.1796,9.89838 74.513,13.2317 75.5,16.5C 78.6622,15.3468 79.3289,16.3468 77.5,19.5C 79.2494,20.9489 79.4161,22.2823 78,23.5C 77.5008,28.1548 77.3342,32.8215 77.5,37.5C 73.2555,34.9278 69.5888,31.5945 66.5,27.5C 66.2127,19.8792 62.2127,15.8792 54.5,15.5C 56.1484,13.5441 56.8151,11.2108 56.5,8.5C 62.3943,7.04371 68.3943,6.37704 74.5,6.5 Z"/></g>
<g><path style="opacity:0.994" fill="#cfe9f6" d="M 74.5,6.5 C 88.8255,8.32888 95.8255,16.4956 95.5,31C 95.6209,34.7822 94.9542,38.2822 93.5,41.5C 91.8546,40.5213 90.5213,39.188 89.5,37.5C 88.2011,38.09 87.3678,39.09 87,40.5C 85.7964,39.5294 85.2964,38.5294 85.5,37.5C 83.8273,39.0863 81.8273,39.7529 79.5,39.5C 78.8333,38.8333 78.1667,38.1667 77.5,37.5C 77.3342,32.8215 77.5008,28.1548 78,23.5C 79.4161,22.2823 79.2494,20.9489 77.5,19.5C 79.3289,16.3468 78.6622,15.3468 75.5,16.5C 74.513,13.2317 74.1796,9.89838 74.5,6.5 Z"/></g>
<g><path style="opacity:0.989" fill="#8ed2f3" d="M 56.5,8.5 C 56.8151,11.2108 56.1484,13.5441 54.5,15.5C 45.7885,17.5877 42.7885,22.921 45.5,31.5C 43.5698,35.1002 40.9031,38.1002 37.5,40.5C 36.8333,40.5 36.1667,40.5 35.5,40.5C 35.1583,39.6618 34.4916,39.3284 33.5,39.5C 33.1583,38.6618 32.4916,38.3284 31.5,38.5C 31.1583,37.6618 30.4916,37.3284 29.5,37.5C 29.1583,36.6618 28.4916,36.3284 27.5,36.5C 27.5,35.8333 27.1667,35.5 26.5,35.5C 26.1583,34.6618 25.4916,34.3284 24.5,34.5C 24.5,33.8333 24.1667,33.5 23.5,33.5C 23.5,32.8333 23.1667,32.5 22.5,32.5C 22.6716,31.5084 22.3382,30.8417 21.5,30.5C 21.6716,29.5084 21.3382,28.8417 20.5,28.5C 20.5,27.5 20.5,26.5 20.5,25.5C 21.3218,23.2721 22.6552,22.6054 24.5,23.5C 23.9264,25.0589 23.2598,26.5589 22.5,28C 23.1667,28.6667 23.8333,28.6667 24.5,28C 25.7938,25.913 26.9605,23.7463 28,21.5C 31,19.5 34,17.5 37,15.5C 37.4828,14.552 37.6495,13.552 37.5,12.5C 43.7417,10.7533 50.075,9.41998 56.5,8.5 Z"/></g>
<g><path style="opacity:0.64" fill="#ed6e27" d="M 37.5,12.5 C 37.6495,13.552 37.4828,14.552 37,15.5C 34,17.5 31,19.5 28,21.5C 26.9605,23.7463 25.7938,25.913 24.5,28C 23.8333,28.6667 23.1667,28.6667 22.5,28C 23.2598,26.5589 23.9264,25.0589 24.5,23.5C 22.6552,22.6054 21.3218,23.2721 20.5,25.5C 20.1667,25.5 19.8333,25.5 19.5,25.5C 18.791,24.596 17.791,24.2627 16.5,24.5C 12.8731,22.8824 12.7064,20.8824 16,18.5C 17.194,20.5254 18.694,20.8587 20.5,19.5C 20.6938,17.9299 20.6938,16.4299 20.5,15C 22.476,14.8122 24.476,14.9788 26.5,15.5C 30.0969,14.199 33.7636,13.199 37.5,12.5 Z"/></g>
<g><path style="opacity:0.998" fill="#f7ba14" d="M 54.5,15.5 C 62.2127,15.8792 66.2127,19.8792 66.5,27.5C 64.0484,24.7156 62.0484,25.049 60.5,28.5C 58.246,29.1237 56.5794,30.457 55.5,32.5C 52.9009,32.4506 50.7342,31.4506 49,29.5C 48.1841,30.8228 47.0174,31.4894 45.5,31.5C 42.7885,22.921 45.7885,17.5877 54.5,15.5 Z"/></g>
<g><path style="opacity:0.746" fill="#f7a114" d="M 237.5,16.5 C 238.833,16.5 240.167,16.5 241.5,16.5C 241.5,18.1667 241.5,19.8333 241.5,21.5C 239.833,21.5 238.167,21.5 236.5,21.5C 236.366,19.7085 236.699,18.0418 237.5,16.5 Z"/></g>
<g><path style="opacity:0.739" fill="#fefffe" d="M 204.5,17.5 C 205.833,17.5 207.167,17.5 208.5,17.5C 208.335,21.1817 208.501,24.8484 209,28.5C 210.829,22.8418 214.663,21.0084 220.5,23C 222.5,26.3333 224.5,26.3333 226.5,23C 230.274,21.8175 233.441,22.6508 236,25.5C 236.483,24.552 236.649,23.552 236.5,22.5C 238.167,22.5 239.833,22.5 241.5,22.5C 241.5,27.5 241.5,32.5 241.5,37.5C 239.234,37.8588 237.401,37.1922 236,35.5C 233.159,37.5037 229.993,38.0037 226.5,37C 225.354,36.3551 224.354,35.5217 223.5,34.5C 220.376,37.356 216.709,38.1893 212.5,37C 210.513,35.6811 209.346,33.8477 209,31.5C 208.505,33.4727 208.338,35.4727 208.5,37.5C 207.167,37.5 205.833,37.5 204.5,37.5C 204.665,33.8183 204.499,30.1516 204,26.5C 203.535,27.9308 202.701,29.0975 201.5,30C 199.19,30.4966 196.857,30.6633 194.5,30.5C 194.5,32.8333 194.5,35.1667 194.5,37.5C 192.856,37.7135 191.356,37.3802 190,36.5C 189.333,30.8333 189.333,25.1667 190,19.5C 193.073,18.3832 196.24,18.2165 199.5,19C 201.667,19.8333 203.167,21.3333 204,23.5C 204.495,21.5273 204.662,19.5273 204.5,17.5 Z M 194.5,22.5 C 196.665,22.1159 198.332,22.7826 199.5,24.5C 198.332,26.2174 196.665,26.8841 194.5,26.5C 194.5,25.1667 194.5,23.8333 194.5,22.5 Z M 214.5,26.5 C 216.429,26.2308 218.095,26.7308 219.5,28C 217.5,28.6667 215.5,28.6667 213.5,28C 214.056,27.6174 214.389,27.1174 214.5,26.5 Z M 228.5,27.5 C 230.952,27.0139 233.618,27.0139 236.5,27.5C 236.657,28.8734 236.49,30.2068 236,31.5C 234.1,29.137 231.6,27.8037 228.5,27.5 Z M 224.5,30.5 C 226.924,31.0305 229.257,31.8638 231.5,33C 230.5,35 229.5,35 228.5,33C 224.465,32.3035 220.465,32.4701 216.5,33.5C 215.263,33.4435 214.263,32.9435 213.5,32C 217.356,31.8227 221.023,31.3227 224.5,30.5 Z"/></g>
<g><path style="opacity:0.745" fill="#fefffe" d="M 142.5,27.5 C 145.131,22.8087 149.131,21.3087 154.5,23C 156.049,24.214 157.215,25.714 158,27.5C 158.494,25.8659 158.66,24.1992 158.5,22.5C 162.514,22.3345 166.514,22.5012 170.5,23C 171.893,24.1711 172.727,25.6711 173,27.5C 173.785,25.714 174.951,24.214 176.5,23C 180.644,23.022 184.644,22.8553 188.5,22.5C 188.5,27.5 188.5,32.5 188.5,37.5C 184.644,37.1447 180.644,36.978 176.5,37C 174.443,33.7002 173.443,33.8669 173.5,37.5C 171.833,37.5 170.167,37.5 168.5,37.5C 168.665,34.1501 168.498,30.8168 168,27.5C 166.667,26.1667 165.333,26.1667 164,27.5C 163.502,30.8168 163.335,34.1501 163.5,37.5C 161.833,37.5 160.167,37.5 158.5,37.5C 158.66,35.8008 158.494,34.1341 158,32.5C 155.612,37.226 151.778,38.726 146.5,37C 145.354,36.3551 144.354,35.5217 143.5,34.5C 142.09,36.9546 139.923,37.9546 137,37.5C 134.019,37.9185 131.686,36.9185 130,34.5C 126.691,37.6467 122.858,38.3133 118.5,36.5C 116.91,34.3203 115.576,31.987 114.5,29.5C 112.253,30.3742 109.92,30.7076 107.5,30.5C 107.5,32.8333 107.5,35.1667 107.5,37.5C 105.833,37.5 104.167,37.5 102.5,37.5C 102.5,31.1667 102.5,24.8333 102.5,18.5C 105.85,18.335 109.183,18.5017 112.5,19C 115.563,20.0661 117.063,22.2328 117,25.5C 121.333,21.5 125.667,21.5 130,25.5C 132.909,22.6061 136.409,21.7728 140.5,23C 142.037,24.1096 142.703,25.6096 142.5,27.5 Z M 107.5,22.5 C 110.5,22.1667 111.833,23.5 111.5,26.5C 110.167,26.5 108.833,26.5 107.5,26.5C 107.5,25.1667 107.5,23.8333 107.5,22.5 Z M 121.5,26.5 C 122.978,26.238 124.311,26.5713 125.5,27.5C 123.926,28.6309 122.259,28.7975 120.5,28C 121.056,27.6174 121.389,27.1174 121.5,26.5 Z M 142.5,27.5 C 142.649,28.552 142.483,29.552 142,30.5C 140.068,28.9617 137.901,27.795 135.5,27C 137.797,26.9822 140.131,27.1489 142.5,27.5 Z M 148.5,26.5 C 153.328,26.3852 154.661,28.5519 152.5,33C 147.57,33.427 146.237,31.2604 148.5,26.5 Z M 179.5,26.5 C 184.493,26.997 185.493,29.1637 182.5,33C 177.362,32.8891 176.362,30.7224 179.5,26.5 Z M 130.5,29.5 C 133.096,30.757 135.763,31.9236 138.5,33C 137.5,35 136.5,35 135.5,33C 131.465,32.3035 127.465,32.4701 123.5,33.5C 122.263,33.4435 121.263,32.9435 120.5,32C 124.311,32.0835 127.645,31.2501 130.5,29.5 Z"/></g>
<g><path style="opacity:0.735" fill="#fefffe" d="M 242.5,22.5 C 246.03,21.9889 249.196,22.6556 252,24.5C 253.574,23.1524 255.407,22.4858 257.5,22.5C 260.359,23.0893 263.359,23.0893 266.5,22.5C 266.5,27.5 266.5,32.5 266.5,37.5C 262.154,37.6657 257.821,37.499 253.5,37C 250.971,34.3583 249.971,31.1916 250.5,27.5C 249.5,27.5 248.5,27.5 247.5,27.5C 247.5,30.8333 247.5,34.1667 247.5,37.5C 245.833,37.5 244.167,37.5 242.5,37.5C 242.5,32.5 242.5,27.5 242.5,22.5 Z M 256.5,26.5 C 261.328,26.3852 262.661,28.5519 260.5,33C 255.57,33.427 254.237,31.2604 256.5,26.5 Z"/></g>
<g><path style="opacity:0.76" fill="#fefffe" d="M 281.5,24.5 C 281.5,28.8333 281.5,33.1667 281.5,37.5C 280.167,37.5 278.833,37.5 277.5,37.5C 277.665,34.1501 277.498,30.8168 277,27.5C 275.667,26.1667 274.333,26.1667 273,27.5C 272.502,30.8168 272.335,34.1501 272.5,37.5C 270.833,37.5 269.167,37.5 267.5,37.5C 267.5,32.5 267.5,27.5 267.5,22.5C 272.467,21.962 277.134,22.6287 281.5,24.5 Z"/></g>
<g><path style="opacity:0.857" fill="#fbd004" d="M 16.5,24.5 C 17.791,24.2627 18.791,24.596 19.5,25.5C 19.2627,26.791 19.596,27.791 20.5,28.5C 20.3284,29.4916 20.6618,30.1583 21.5,30.5C 21.3284,31.4916 21.6618,32.1583 22.5,32.5C 23.1667,32.5 23.5,32.8333 23.5,33.5C 24.1667,33.5 24.5,33.8333 24.5,34.5C 24.8417,35.3382 25.5084,35.6716 26.5,35.5C 27.1667,35.5 27.5,35.8333 27.5,36.5C 27.8417,37.3382 28.5084,37.6716 29.5,37.5C 29.8417,38.3382 30.5084,38.6716 31.5,38.5C 31.8417,39.3382 32.5084,39.6716 33.5,39.5C 33.8417,40.3382 34.5084,40.6716 35.5,40.5C 35.8417,41.3382 36.5084,41.6716 37.5,41.5C 38.209,42.404 39.209,42.7373 40.5,42.5C 41.209,43.404 42.209,43.7373 43.5,43.5C 44.209,44.404 45.209,44.7373 46.5,44.5C 47.209,45.404 48.209,45.7373 49.5,45.5C 50.5676,46.4345 51.901,46.7678 53.5,46.5C 54.5676,47.4345 55.901,47.7678 57.5,47.5C 58.9187,48.4511 60.5853,48.7845 62.5,48.5C 65.5443,50.0114 68.8776,50.678 72.5,50.5C 74.2646,51.4614 76.2646,51.7947 78.5,51.5C 79.9187,52.4511 81.5853,52.7845 83.5,52.5C 84.1667,52.5 84.8333,52.5 85.5,52.5C 86.209,53.404 87.209,53.7373 88.5,53.5C 88.8333,53.5 89.1667,53.5 89.5,53.5C 92.8738,53.6744 96.2072,54.1744 99.5,55C 90.5062,55.4998 81.5062,55.6664 72.5,55.5C 64.5982,54.3405 56.5982,53.0071 48.5,51.5C 48.1667,51.5 47.8333,51.5 47.5,51.5C 38.0908,49.0852 29.0908,45.5852 20.5,41C 18.0976,38.3287 16.0976,35.4954 14.5,32.5C 14.2826,29.5794 14.9493,26.9128 16.5,24.5 Z"/></g>
<g><path style="opacity:0.963" fill="#5a9844" d="M 79.5,39.5 C 81.8273,39.7529 83.8273,39.0863 85.5,37.5C 85.2964,38.5294 85.7964,39.5294 87,40.5C 87.3678,39.09 88.2011,38.09 89.5,37.5C 90.5213,39.188 91.8546,40.5213 93.5,41.5C 93.1628,45.8451 91.8294,49.8451 89.5,53.5C 89.1667,53.5 88.8333,53.5 88.5,53.5C 87.791,52.596 86.791,52.2627 85.5,52.5C 84.8333,52.5 84.1667,52.5 83.5,52.5C 82.0813,51.5489 80.4147,51.2155 78.5,51.5C 76.7354,50.5386 74.7354,50.2053 72.5,50.5C 69.4115,49.2154 66.0781,48.5488 62.5,48.5C 61.0813,47.5489 59.4147,47.2155 57.5,47.5C 56.4324,46.5655 55.099,46.2322 53.5,46.5C 52.4324,45.5655 51.099,45.2322 49.5,45.5C 48.791,44.596 47.791,44.2627 46.5,44.5C 45.791,43.596 44.791,43.2627 43.5,43.5C 43.1583,42.6618 42.4916,42.3284 41.5,42.5C 44.3796,41.4304 44.8796,39.7638 43,37.5C 41.6244,38.7051 40.4577,40.0384 39.5,41.5C 38.8333,41.5 38.1667,41.5 37.5,41.5C 37.5,41.1667 37.5,40.8333 37.5,40.5C 40.9031,38.1002 43.5698,35.1002 45.5,31.5C 47.0174,31.4894 48.1841,30.8228 49,29.5C 50.7342,31.4506 52.9009,32.4506 55.5,32.5C 54.1474,33.8671 54.4807,34.8671 56.5,35.5C 58.6288,34.2064 60.2955,32.5397 61.5,30.5C 62.3149,29.5707 63.1482,28.5707 64,27.5C 67.5174,30.7165 70.6841,34.2165 73.5,38C 75.5039,39.5618 77.5039,40.0618 79.5,39.5 Z"/></g>
<g><path style="opacity:0.996" fill="#9dc646" d="M 66.5,27.5 C 69.5888,31.5945 73.2555,34.9278 77.5,37.5C 78.1667,38.1667 78.8333,38.8333 79.5,39.5C 77.5039,40.0618 75.5039,39.5618 73.5,38C 70.6841,34.2165 67.5174,30.7165 64,27.5C 63.1482,28.5707 62.3149,29.5707 61.5,30.5C 61.6716,29.5084 61.3382,28.8417 60.5,28.5C 62.0484,25.049 64.0484,24.7156 66.5,27.5 Z"/></g>
<g><path style="opacity:0.48" fill="#fe0800" d="M 14.5,32.5 C 16.0976,35.4954 18.0976,38.3287 20.5,41C 29.0908,45.5852 38.0908,49.0852 47.5,51.5C 47.8333,52.8333 48.1667,52.8333 48.5,51.5C 56.5982,53.0071 64.5982,54.3405 72.5,55.5C 72.4208,56.9305 72.7542,58.2638 73.5,59.5C 72.1667,59.8333 70.8333,60.1667 69.5,60.5C 55.8761,58.8708 42.8761,56.0375 30.5,52C 23.2892,49.4707 17.1225,45.304 12,39.5C 11.5078,38.451 11.6744,37.451 12.5,36.5C 12.1543,35.3044 11.6543,35.3044 11,36.5C 10.5172,35.552 10.3505,34.552 10.5,33.5C 11.9587,33.5674 13.2921,33.2341 14.5,32.5 Z"/></g>
<g><path style="opacity:1" fill="#deeab5" d="M 60.5,28.5 C 61.3382,28.8417 61.6716,29.5084 61.5,30.5C 60.2955,32.5397 58.6288,34.2064 56.5,35.5C 54.4807,34.8671 54.1474,33.8671 55.5,32.5C 56.5794,30.457 58.246,29.1237 60.5,28.5 Z"/></g>
<g><path style="opacity:0.824" fill="#f9fbf4" d="M 41.5,42.5 C 41.1667,42.5 40.8333,42.5 40.5,42.5C 40.5,41.8333 40.1667,41.5 39.5,41.5C 40.4577,40.0384 41.6244,38.7051 43,37.5C 44.8796,39.7638 44.3796,41.4304 41.5,42.5 Z"/></g>
<g><path style="opacity:0.54" fill="#fefffe" d="M 126.5,38.5 C 127.5,38.5 128.5,38.5 129.5,38.5C 129.5,43.1667 129.5,47.8333 129.5,52.5C 126.786,52.75 124.119,52.9167 121.5,53C 117.5,50.3333 116.833,47 119.5,43C 121.624,41.4178 123.79,41.2512 126,42.5C 126.49,41.2068 126.657,39.8734 126.5,38.5 Z M 121.5,44.5 C 126.158,44.653 127.158,46.4863 124.5,50C 120.83,49.8362 119.83,48.0029 121.5,44.5 Z"/></g>
<g><path style="opacity:0.484" fill="#fefffe" d="M 174.5,38.5 C 175.5,38.5 176.5,38.5 177.5,38.5C 177.5,43.1667 177.5,47.8333 177.5,52.5C 176.5,52.5 175.5,52.5 174.5,52.5C 174.5,47.8333 174.5,43.1667 174.5,38.5 Z"/></g>
<g><path style="opacity:0.535" fill="#fefffe" d="M 102.5,39.5 C 103.5,39.5 104.5,39.5 105.5,39.5C 105.5,43.8333 105.5,48.1667 105.5,52.5C 104.5,52.5 103.5,52.5 102.5,52.5C 102.5,48.1667 102.5,43.8333 102.5,39.5 Z"/></g>
<g><path style="opacity:0.581" fill="#fefffe" d="M 106.5,41.5 C 108.597,42.3531 110.597,42.3531 112.5,41.5C 114.029,41.5288 115.196,42.1955 116,43.5C 116.821,46.5541 116.655,49.5541 115.5,52.5C 114.686,50.2338 114.186,47.9005 114,45.5C 112.667,44.1667 111.333,44.1667 110,45.5C 109.503,47.8098 109.337,50.1432 109.5,52.5C 108.5,52.5 107.5,52.5 106.5,52.5C 106.5,48.8333 106.5,45.1667 106.5,41.5 Z"/></g>
<g><path style="opacity:0.579" fill="#fefffe" d="M 133.5,41.5 C 140.463,41.7647 142.63,45.098 140,51.5C 133.035,54.5053 130.035,52.172 131,44.5C 131.698,43.3094 132.531,42.3094 133.5,41.5 Z M 133.5,44.5 C 138.159,44.0146 139.492,45.848 137.5,50C 133.272,50.2717 131.938,48.4383 133.5,44.5 Z"/></g>
<g><path style="opacity:0.54" fill="#fefffe" d="M 142.5,41.5 C 151.002,40.3379 154.335,44.0046 152.5,52.5C 151.5,52.5 150.5,52.5 149.5,52.5C 149.5,49.8333 149.5,47.1667 149.5,44.5C 148.167,44.5 146.833,44.5 145.5,44.5C 145.5,47.1667 145.5,49.8333 145.5,52.5C 144.5,52.5 143.5,52.5 142.5,52.5C 142.5,48.8333 142.5,45.1667 142.5,41.5 Z"/></g>
<g><path style="opacity:0.534" fill="#fefffe" d="M 164.5,48.5 C 162.036,54.0364 158.536,54.7031 154,50.5C 152.902,43.2566 155.735,40.7566 162.5,43C 163.126,43.7504 163.626,44.5838 164,45.5C 166.892,40.804 170.059,40.4707 173.5,44.5C 171.587,45.0512 169.587,45.2179 167.5,45C 169.219,46.0569 171.053,46.8903 173,47.5C 173.59,52.2101 171.59,53.8767 167,52.5C 165.405,51.6443 164.572,50.3109 164.5,48.5 Z M 157.5,44.5 C 159.103,44.3118 160.437,44.8118 161.5,46C 159.833,46.6667 158.167,46.6667 156.5,46C 157.056,45.6174 157.389,45.1174 157.5,44.5 Z M 164.5,48.5 C 164.511,45.9991 165.178,45.8324 166.5,48C 165.906,48.4643 165.239,48.631 164.5,48.5 Z M 156.5,49.5 C 157.946,48.3871 159.613,48.2204 161.5,49C 159.977,50.7884 158.31,50.9551 156.5,49.5 Z M 167.5,48.5 C 169.983,48.73 170.483,49.3966 169,50.5C 167.97,50.1639 167.47,49.4972 167.5,48.5 Z"/></g>
<g><path style="opacity:0.58" fill="#fefffe" d="M 181.5,41.5 C 183.939,42.0525 186.273,42.0525 188.5,41.5C 189.489,45.1073 189.823,48.774 189.5,52.5C 187.409,52.3184 185.409,52.6518 183.5,53.5C 177.797,50.3215 177.131,46.3215 181.5,41.5 Z M 182.5,44.5 C 186.35,44.7007 187.35,46.5341 185.5,50C 181.537,50.1177 180.537,48.2843 182.5,44.5 Z"/></g>
</svg>
